<svg width="26" height="26" viewBox="0 0 26 26" fill="none" xmlns="http://www.w3.org/2000/svg">
<path d="M23.456 8.06567L23.149 8.46033L23.1492 8.46049L23.456 8.06567ZM15.456 1.843L15.1489 2.23756L15.149 2.23767L15.456 1.843ZM10.544 1.843L10.2371 1.4483L10.237 1.44833L10.544 1.843ZM2.544 8.06567L2.85078 8.46049L2.85098 8.46033L2.544 8.06567ZM15.828 12.1723L15.4743 12.5257L15.4744 12.5259L15.828 12.1723ZM23.763 7.671L15.763 1.44833L15.149 2.23767L23.149 8.46033L23.763 7.671ZM15.7631 1.44844C14.1384 0.183788 11.8629 0.183963 10.2371 1.4483L10.8509 2.2377C12.1158 1.25404 13.8856 1.25421 15.1489 2.23756L15.7631 1.44844ZM10.237 1.44833L2.23702 7.671L2.85098 8.46033L10.851 2.23767L10.237 1.44833ZM2.23722 7.67085C1.14042 8.52308 0.5 9.83424 0.5 11.223H1.5C1.5 10.1424 1.99825 9.12292 2.85078 8.46049L2.23722 7.67085ZM0.5 11.223V21.0003H1.5V11.223H0.5ZM0.5 21.0003C0.5 23.4858 2.51452 25.5003 5 25.5003V24.5003C3.06681 24.5003 1.5 22.9335 1.5 21.0003H0.5ZM5 25.5003H21V24.5003H5V25.5003ZM21 25.5003C23.4855 25.5003 25.5 23.4858 25.5 21.0003H24.5C24.5 22.9335 22.9332 24.5003 21 24.5003V25.5003ZM25.5 21.0003V11.223H24.5V21.0003H25.5ZM25.5 11.223C25.5 9.83424 24.8596 8.52308 23.7628 7.67085L23.1492 8.46049C24.0018 9.12292 24.5 10.1424 24.5 11.223H25.5ZM15.4744 12.5259C16.8419 13.8933 16.8419 16.1087 15.4744 17.4761L16.1816 18.1832C17.9395 16.4253 17.9395 13.5767 16.1816 11.8188L15.4744 12.5259ZM15.4744 17.4761C14.107 18.8435 11.8916 18.8435 10.5242 17.4761L9.81711 18.1832C11.575 19.9411 14.4236 19.9411 16.1816 18.1832L15.4744 17.4761ZM10.5242 17.4761C9.15682 16.1087 9.15682 13.8933 10.5242 12.5259L9.81711 11.8188C8.05919 13.5767 8.05919 16.4253 9.81711 18.1832L10.5242 17.4761ZM10.5242 12.5259C11.8917 11.1584 14.1083 11.1586 15.4743 12.5257L16.1817 11.8189C14.425 10.0607 11.575 10.0609 9.81711 11.8188L10.5242 12.5259Z" fill="#1D32A8"/>
</svg>
