<svg width="26" height="26" viewBox="0 0 26 26" fill="none" xmlns="http://www.w3.org/2000/svg">
<path d="M23.6667 17.7333H17M17 22.9333H23.6667M7.66667 10.3333H3.66667C2.19333 10.3333 1 9.14 1 7.66667V3.66667C1 2.19333 2.19333 1 3.66667 1H7.66667C9.14 1 10.3333 2.19333 10.3333 3.66667V7.66667C10.3333 9.14 9.14 10.3333 7.66667 10.3333ZM22.3333 10.3333H18.3333C16.86 10.3333 15.6667 9.14 15.6667 7.66667V3.66667C15.6667 2.19333 16.86 1 18.3333 1H22.3333C23.8067 1 25 2.19333 25 3.66667V7.66667C25 9.14 23.8067 10.3333 22.3333 10.3333ZM7.66667 25H3.66667C2.19333 25 1 23.8067 1 22.3333V18.3333C1 16.86 2.19333 15.6667 3.66667 15.6667H7.66667C9.14 15.6667 10.3333 16.86 10.3333 18.3333V22.3333C10.3333 23.8067 9.14 25 7.66667 25Z" stroke="white" stroke-linecap="round" stroke-linejoin="round"/>
</svg>
