<svg width="22" height="30" viewBox="0 0 22 30" fill="none" xmlns="http://www.w3.org/2000/svg">
<path fill-rule="evenodd" clip-rule="evenodd" d="M0 2.11716C0 1.3982 0.213038 0.865446 0.639192 0.519299C1.06535 0.173074 1.66441 0 2.43679 0C2.91605 0 3.35566 0.0599862 3.75506 0.179721C4.15463 0.299614 4.42084 0.38619 4.55395 0.439291V11.9041C5.21981 11.0518 6.13868 10.3262 7.3103 9.727C8.48201 9.12778 9.82703 8.82816 11.345 8.82816C12.6343 8.82816 13.836 9.02964 14.95 9.43198L11.4461 12.9415C11.2052 12.9158 10.9584 12.9027 10.7059 12.9027C9.77369 12.9027 8.92819 13.0692 8.16926 13.4021C7.41025 13.7351 6.76442 14.1944 6.23182 14.7802C5.69915 15.3662 5.27972 16.0587 4.97362 16.8576C4.66736 17.6566 4.51407 18.5086 4.51407 19.4141C4.51407 20.3729 4.66736 21.2515 4.97362 22.0505C5.2798 22.8495 5.70595 23.5286 6.25184 24.0879C6.79773 24.6472 7.4503 25.0865 8.20922 25.4062C8.96823 25.7257 9.80052 25.8855 10.706 25.8855C11.6114 25.8855 12.4435 25.7189 13.2025 25.3861C13.8839 25.0873 14.4797 24.6918 14.9895 24.1996L14.9903 24.1988C15.0408 24.1499 15.0906 24.1001 15.1394 24.0493L21.4601 17.7185C21.5344 18.2658 21.5712 18.8308 21.5712 19.4141C21.5712 20.9322 21.305 22.3435 20.7723 23.6484C20.2398 24.9533 19.494 26.0719 18.5355 27.0039C17.5766 27.9359 16.4381 28.6683 15.1199 29.201C13.8017 29.7337 12.357 30 10.7857 30C9.21443 30 7.76977 29.7604 6.45151 29.281C5.13324 28.8015 3.99477 28.0826 3.03618 27.1239C2.07735 26.1651 1.33172 24.9668 0.799128 23.5287C0.266692 22.0905 0.000158429 20.3995 0.000158429 18.4555V2.11724L0 2.11716Z" fill="white"/>
<path d="M20.9084 13.6819C21.3487 13.2416 21.5412 12.7815 21.4861 12.302C21.431 11.8224 21.1757 11.3544 20.7196 10.8985C20.4208 10.5996 20.1063 10.3638 19.776 10.1907C19.4459 10.0177 19.2258 9.90774 19.1155 9.8605L11.568 17.4077L10.5095 16.3493C10.0696 15.9091 9.60886 15.7164 9.12969 15.7713C8.65012 15.8263 8.18218 16.082 7.72619 16.538C7.42736 16.8368 7.19138 17.1513 7.01838 17.4817C6.84547 17.8117 6.73523 18.0318 6.68806 18.1421L9.67842 21.1325C10.7194 22.1733 12.4171 22.1733 13.4578 21.1323L14.3752 20.2149L20.9083 13.6819H20.9084Z" fill="#FF9933"/>
</svg>
